<?xml version="1.0" encoding="UTF-8" standalone="no"?>
<!-- Created with Inkscape (http://www.inkscape.org/) -->
<svg
   xmlns:dc="http://purl.org/dc/elements/1.1/"
   xmlns:cc="http://creativecommons.org/ns#"
   xmlns:rdf="http://www.w3.org/1999/02/22-rdf-syntax-ns#"
   xmlns:svg="http://www.w3.org/2000/svg"
   xmlns="http://www.w3.org/2000/svg"
   xmlns:sodipodi="http://sodipodi.sourceforge.net/DTD/sodipodi-0.dtd"
   xmlns:inkscape="http://www.inkscape.org/namespaces/inkscape"
   width="210mm"
   height="297mm"
   id="svg2416"
   sodipodi:version="0.32"
   inkscape:version="0.46"
   sodipodi:docname="c.svg"
   inkscape:output_extension="org.inkscape.output.svg.inkscape">
  <defs
     id="defs2418">
    <inkscape:perspective
       sodipodi:type="inkscape:persp3d"
       inkscape:vp_x="0 : 526.18109 : 1"
       inkscape:vp_y="0 : 1000 : 0"
       inkscape:vp_z="744.09448 : 526.18109 : 1"
       inkscape:persp3d-origin="372.04724 : 350.78739 : 1"
       id="perspective2424" />
  </defs>
  <sodipodi:namedview
     id="base"
     pagecolor="#ffffff"
     bordercolor="#666666"
     borderopacity="1.0"
     inkscape:pageopacity="0.0"
     inkscape:pageshadow="2"
     inkscape:zoom="1.9969564"
     inkscape:cx="372.04724"
     inkscape:cy="526.18109"
     inkscape:document-units="px"
     inkscape:current-layer="layer1"
     showgrid="false"
     inkscape:window-width="1680"
     inkscape:window-height="975"
     inkscape:window-x="0"
     inkscape:window-y="25" />
  <metadata
     id="metadata2421">
    <rdf:RDF>
      <cc:Work
         rdf:about="">
        <dc:format>image/svg+xml</dc:format>
        <dc:type
           rdf:resource="http://purl.org/dc/dcmitype/StillImage" />
      </cc:Work>
    </rdf:RDF>
  </metadata>
  <g
     inkscape:label="Ebene 1"
     inkscape:groupmode="layer"
     id="layer1">
    <path
       style="font-size:12px;font-style:normal;font-variant:normal;font-weight:normal;font-stretch:normal;fill:#000000;fill-opacity:1;stroke:none;stroke-width:1px;stroke-linecap:butt;stroke-linejoin:miter;stroke-opacity:1;font-family:Bitstream Charter;-inkscape-font-specification:Bitstream Charter"
       d="M 62.855828,445.17797 L 67.122494,445.17797 L 67.122494,449.44464 L 62.855828,449.44464 L 62.855828,445.17797 M 62.855828,440.91131 L 67.122494,440.91131 L 67.122494,445.17797 L 62.855828,445.17797 L 62.855828,440.91131 M 62.855828,436.64464 L 67.122494,436.64464 L 67.122494,440.91131 L 62.855828,440.91131 L 62.855828,436.64464 M 62.855828,432.37797 L 67.122494,432.37797 L 67.122494,436.64464 L 62.855828,436.64464 L 62.855828,432.37797 M 62.855828,428.11131 L 67.122494,428.11131 L 67.122494,432.37797 L 62.855828,432.37797 L 62.855828,428.11131 M 67.122494,428.11131 L 71.389161,428.11131 L 71.389161,432.37797 L 67.122494,432.37797 L 67.122494,428.11131 M 71.389161,428.11131 L 75.655828,428.11131 L 75.655828,432.37797 L 71.389161,432.37797 L 71.389161,428.11131 M 75.655828,445.17797 L 79.922494,445.17797 L 79.922494,449.44464 L 75.655828,449.44464 L 75.655828,445.17797 M 75.655828,428.11131 L 79.922494,428.11131 L 79.922494,432.37797 L 75.655828,432.37797 L 75.655828,428.11131 M 58.589161,445.17797 L 62.855828,445.17797 L 62.855828,449.44464 L 58.589161,449.44464 L 58.589161,445.17797 M 58.589161,440.91131 L 62.855828,440.91131 L 62.855828,445.17797 L 58.589161,445.17797 L 58.589161,440.91131 M 58.589161,436.64464 L 62.855828,436.64464 L 62.855828,440.91131 L 58.589161,440.91131 L 58.589161,436.64464 M 58.589161,432.37797 L 62.855828,432.37797 L 62.855828,436.64464 L 58.589161,436.64464 L 58.589161,432.37797 M 58.589161,428.11131 L 62.855828,428.11131 L 62.855828,432.37797 L 58.589161,432.37797 L 58.589161,428.11131 M 67.122494,445.17797 L 71.389161,445.17797 L 71.389161,449.44464 L 67.122494,449.44464 L 67.122494,445.17797 M 71.389161,445.17797 L 75.655828,445.17797 L 75.655828,449.44464 L 71.389161,449.44464 L 71.389161,445.17797"
       id="text2471" />
  </g>
</svg>
