<?xml version="1.0" encoding="UTF-8" standalone="no"?>
<!-- Created with Inkscape (http://www.inkscape.org/) -->
<svg
   xmlns:dc="http://purl.org/dc/elements/1.1/"
   xmlns:cc="http://creativecommons.org/ns#"
   xmlns:rdf="http://www.w3.org/1999/02/22-rdf-syntax-ns#"
   xmlns:svg="http://www.w3.org/2000/svg"
   xmlns="http://www.w3.org/2000/svg"
   xmlns:sodipodi="http://sodipodi.sourceforge.net/DTD/sodipodi-0.dtd"
   xmlns:inkscape="http://www.inkscape.org/namespaces/inkscape"
   width="210mm"
   height="297mm"
   id="svg2423"
   sodipodi:version="0.32"
   inkscape:version="0.46"
   sodipodi:docname="3.svg"
   inkscape:output_extension="org.inkscape.output.svg.inkscape">
  <defs
     id="defs2425">
    <inkscape:perspective
       sodipodi:type="inkscape:persp3d"
       inkscape:vp_x="0 : 526.18109 : 1"
       inkscape:vp_y="0 : 1000 : 0"
       inkscape:vp_z="744.09448 : 526.18109 : 1"
       inkscape:persp3d-origin="372.04724 : 350.78739 : 1"
       id="perspective2431" />
    <inkscape:perspective
       id="perspective2399"
       inkscape:persp3d-origin="372.04724 : 350.78739 : 1"
       inkscape:vp_z="744.09448 : 526.18109 : 1"
       inkscape:vp_y="0 : 1000 : 0"
       inkscape:vp_x="0 : 526.18109 : 1"
       sodipodi:type="inkscape:persp3d" />
    <inkscape:perspective
       id="perspective2414"
       inkscape:persp3d-origin="372.04724 : 350.78739 : 1"
       inkscape:vp_z="744.09448 : 526.18109 : 1"
       inkscape:vp_y="0 : 1000 : 0"
       inkscape:vp_x="0 : 526.18109 : 1"
       sodipodi:type="inkscape:persp3d" />
  </defs>
  <sodipodi:namedview
     id="base"
     pagecolor="#ffffff"
     bordercolor="#666666"
     borderopacity="1.0"
     inkscape:pageopacity="0.0"
     inkscape:pageshadow="2"
     inkscape:zoom="2.8"
     inkscape:cx="260.1152"
     inkscape:cy="648.38427"
     inkscape:document-units="px"
     inkscape:current-layer="layer1"
     showgrid="true"
     inkscape:window-width="1680"
     inkscape:window-height="975"
     inkscape:window-x="0"
     inkscape:window-y="25"
     objecttolerance="32"
     inkscape:snap-bbox="false"
     inkscape:snap-intersection-line-segments="true"
     inkscape:snap-guide="true"
     gridtolerance="32"
     guidetolerance="32"
     showguides="true"
     inkscape:guide-bbox="true">
    <inkscape:grid
       type="xygrid"
       id="grid2402"
       visible="true"
       enabled="true"
       units="px"
       spacingx="0.2px"
       spacingy="0.2px"
       dotted="false"
       empspacing="5" />
  </sodipodi:namedview>
  <metadata
     id="metadata2428">
    <rdf:RDF>
      <cc:Work
         rdf:about="">
        <dc:format>image/svg+xml</dc:format>
        <dc:type
           rdf:resource="http://purl.org/dc/dcmitype/StillImage" />
      </cc:Work>
    </rdf:RDF>
  </metadata>
  <g
     inkscape:label="Ebene 1"
     inkscape:groupmode="layer"
     id="layer1">
    <text
       xml:space="preserve"
       style="font-size:40px;font-style:normal;font-weight:normal;fill:#000000;fill-opacity:1;stroke:none;stroke-width:1px;stroke-linecap:butt;stroke-linejoin:miter;stroke-opacity:1;font-family:Bitstream Vera Sans"
       x="138.3909"
       y="558.39758"
       id="text2424"><tspan
         sodipodi:role="line"
         id="tspan2426"
         x="138.3909"
         y="558.39758" /></text>
    <text
       xml:space="preserve"
       style="font-size:72px;font-style:normal;font-weight:normal;fill:#000000;fill-opacity:1;stroke:none;stroke-width:1px;stroke-linecap:butt;stroke-linejoin:miter;stroke-opacity:1;font-family:Bitstream Vera Sans"
       x="396.98996"
       y="256.36197"
       id="text2434"><tspan
         sodipodi:role="line"
         id="tspan2436"
         x="396.98996"
         y="256.36197" /></text>
    <path
       style="font-size:72px;font-style:normal;font-weight:normal;fill:#000000;fill-opacity:1;stroke:none;stroke-width:1px;stroke-linecap:butt;stroke-linejoin:miter;stroke-opacity:1;font-family:Bitstream Vera Sans"
       d="M 198.8577,387.2757 C 202.2561,388.00229 204.90454,389.514 206.80301,391.81085 C 208.72484,394.10775 209.68578,396.94368 209.68582,400.31866 C 209.68578,405.49836 207.90453,409.50617 204.34207,412.3421 C 200.77954,415.17804 195.71705,416.59601 189.15457,416.59601 C 186.95143,416.59601 184.67799,416.37335 182.33426,415.92804 C 180.01394,415.50616 177.61159,414.86163 175.12723,413.99445 L 175.12723,407.13898 C 177.09597,408.28742 179.25222,409.15461 181.59598,409.74054 C 183.93971,410.32648 186.38893,410.61945 188.94363,410.61945 C 193.39674,410.61945 196.78345,409.74055 199.10379,407.98273 C 201.44751,406.22492 202.61938,403.67024 202.61942,400.31866 C 202.61938,397.22493 201.52954,394.81087 199.34988,393.07648 C 197.19361,391.31869 194.18189,390.43978 190.31473,390.43976 L 184.19754,390.43976 L 184.19754,384.60382 L 190.59598,384.60382 C 194.08814,384.60385 196.76001,383.91245 198.6116,382.5296 C 200.46313,381.12339 201.38891,379.10776 201.38895,376.48273 C 201.38891,373.78746 200.42798,371.72496 198.50613,370.29523 C 196.60767,368.84215 193.8772,368.11559 190.31473,368.11554 C 188.3694,368.11559 186.28346,368.32652 184.05692,368.74835 C 181.83034,369.17027 179.38112,369.82652 176.70926,370.7171 L 176.70926,364.38898 C 179.40456,363.63903 181.92409,363.07653 184.26785,362.70148 C 186.63502,362.32653 188.86158,362.13903 190.94754,362.13898 C 196.33814,362.13903 200.60376,363.3695 203.74442,365.83038 C 206.885,368.26793 208.45531,371.57261 208.45535,375.74445 C 208.45531,378.65073 207.62328,381.11167 205.95926,383.12726 C 204.29516,385.11948 201.92798,386.50229 198.8577,387.2757"
       id="text2397" />
  </g>
</svg>
